<mxfile host="65bd71144e">
    <diagram id="HIP3nbAZw_EuaXWnEj3U" name="Page-1">
        <mxGraphModel dx="346" dy="293" grid="1" gridSize="10" guides="1" tooltips="1" connect="1" arrows="1" fold="1" page="1" pageScale="1" pageWidth="850" pageHeight="1100" math="0" shadow="0">
            <root>
                <mxCell id="0"/>
                <mxCell id="1" parent="0"/>
                <mxCell id="7" value="http://ics2o.mths.ca" style="swimlane;whiteSpace=wrap;html=1;shadow=0;" parent="1" vertex="1">
                    <mxGeometry x="220" y="20" width="550" height="300" as="geometry"/>
                </mxCell>
                <mxCell id="10" value="" style="shape=image;imageAspect=0;aspect=fixed;verticalLabelPosition=bottom;verticalAlign=top;shadow=0;image=data:image/png,iVBORw0KGgoAAAANSUhEUgAAAeAAAAHgCAYAAAB91L6VAAAABGdBTUEAALGPC/xhBQAAACBjSFJNAAB6JgAAgIQAAPoAAACA6AAAdTAAAOpgAAA6mAAAF3CculE8AAAABmJLR0QA/wD/AP+gvaeTAABi0UlEQVR42u3dd5iTVdrH8W8ynYGZofcqRUBRAcGCigVYe+9dsa1117K6u671Vex1bdjr2nUt6IoNRbGgiDSlg/Q2MMMwTEneP+4TJ8RMTzIpv8915cpMkskk5yn3c9p9PIhILDQD2gMdgHZAQZhbnrtludc3BzLcc56g98oD0kLevxwoDvq9EtgElAJb3HPlQCGw0d0Kg24bgNXACmCN+zsRiSKPikCk0doD3YAu7r6ru3UJCrq5tbxHiQuEpe6+IiSAAmwGymp5n2wgx/2cC2S6AJ7uAncz93t2Le+zKSgYLwZ+A5YCS4Lu12vTiygAi8QiyA4AervbdkH3zcO8fh2wDFjuapZrggLaahe8gmugZTH+Ptkhte/WQFt3sdDe/dwe6OguJPLDvMcGYD4wL+h+LjDLPSciCsAiddYK2MUF24FB961CXrfGBZxA8AnUEn9zP29JsnLJc7X6QE2/e8iFSEHI61e4QDwLmOluPwFF2sVEFIBFugCDXcDdBdjZBZaAChdgZwYFkkDQ3aji20YbF4j7uouWwK0n4HWv8bmLlR+BH4BpwFRgrYpPFIBFklcuMAQYDuzm7jsHPb82JDDMAH4l9k3DySYH6A/sGHSRszPbNmnPB74Juv2ochcFYJHErpGNAPYB9gYGYQORwPonv3Un++9dwF2qIovpeaeXC8hD3QXRUKoGqm1122WSu01GTdeiACwSt/KAA4D9XdAd4PZvH9Z0/IULuN8CvwB+FVlcSQN2CGqdGAH0cc9VuFrxJOAjd79FRSYi0nR6AZe6k/JWF1QrXMB9FDgWG90riak9cCgwztWIK902LnHb/G9Yt4KIiERZgQuqT2BTfPzutgR4DDiK8NNlJDm0A04BXsBGoQe2/1zgAeAgbJ6ziIhEwM7A37Em5HJ3wt0KfAxciTVbSurxAsOA64ApWMuHH2ua/hC4DBuVLSIi9TAQuB6YHVTLWQE862rAquVKqNZu33gUm4sd2G9mun2pj4pIRCS8/q42Myvo5DkNuMY9J1Kf2vEQ4P+wOduB/ekb4HIsmYiISErrgQ2i+jJMjWV7FY9ESKBF5dcw+1kvFY+IpIqOwFVYwovAyXA2cIM7UYpEiweb4nQXNnDPj42sngRcgLo2RCQJebE5uq9gGY78wCLgPmy+p0hT1YzHUTWifovbRw9AORJEJMF1wuZqLtAJThLkAjEwn3yO23fbqnhEJFGkBZ3MAtOGZrqTWSsVj8S5lsC5wM9UTXnTRaOIxLWewC3Y+rd+bLWgh1GmIklMHmAklvRji9un5wFXYxm6RESa3BBsfm6gtvu9q0E0V9FIksh3+/S0oFrxsygJjIg0AS+W9nEyVX27j+mEJClgD6xJugJb6OM9YD8Vi4hEWxZwGlUZqgqxkcydVTSSYnpgI6gLqUoacxqQoaIRkUhqhyUtCCTAn48l0FDie0l1ee5YWEpVytTrscFcIiIN1hd4HCh1J5cvgSOwJmgRqZIFnEnV6OmNwB1Y4hkRkTrrhiW1L8cyBb2D9X2JSO1GuGPG5y5eHwU6qFhEpCZdgUewbFWVwHNoFRmRhtoVeN/ViIuwxSE0F15EttEWG1CyxV21vwPspGIRiYjd3DEVCMTjgAIVi0hqa+NOBpvdyeEjYLCKRSQq9gQ+ccfaOmywVp6KRSS1tMKaw4rcyeB9YKiKRSQmxmBrE/uB1cBfgRwVi0hyS8cy+qymalTzSBWLSJM4AMsc5wd+w+YRK9+0SJJedc9yB/sPwL4qEpEm5wGOpWrFsC9Ra5RI0uiDpc7zA2uxpAFpKhaRuJLpjs2N2EDIV7DpgCKSgAqwAVal2LSi+7Ck8iISvzpi84YrgGJsoFa2ikUkMXixvqSVVI1sHqBiEUkog4FJ7hhe4o5pEYlj+wA/uYP2Z2yQh4gkJg9wogvAfmwK044qFpH4ko81MVdi8wsvxUY8i0jiywH+hk0bLMe6ltQsLRIHjgaWYwM3nkap7kSSVXdggqsNzwH2UpGINI0OwKvuYFwAjFaRiKSEY7G5/D7gWV10i8SOBxuQsQ5rcn4UaK5iEUkpLd2x78dawI5WkYhE13bARHfQ/QQMU5GIpLQ/AYvcOeEdoLOKRCSy0rGBVcXYikXXYxP3RUSaYQOzKoANWLpZpbQUiYCewGR3hfsFsL2KRETC2AWY6s4V/wM6qUhEGm6sq/VuBi7QVa2I1CIDuNHVhlcCB6tIROqnAHiJqoQamnwvIvUxHJjnziHPArkqEpHa7Y8tTebDkmtkqUhEpAHyqBopPQtrohaRMDKwwVWVwArgQBWJiETAscB6bFGW67F88SLi9MfW6PUDrwOtVSQiEkHdgM/dOWYimq4kAsCfgRIsz+vZKg4RiZI04Fosn/Qa4DAViaSqZsBz7or0G6CPikREYiAwQMsH3OICs0jK6AZ854LvoyiphojEVgvgNXcO+hRoryKRVHAQNiBiC3CWikNEmogHW+awAljqasYiSb2zVwKLgV1VJCISB0YCq4BS4BwVhySbPOANrLlnAlo+TETiS1dsLEogcUeOikSSwSCqBjyMQwMeRCQ+ZQHjXRCeCvRQkUgiOwnL41wIHKriEJEEcD6wFVgN7KvikETjwTLO+IDZWKINEZFEMQRbZ7jcBWSRhJCJ9aH4gQ+x/l8RkUTTgarpkvehFJYS51oCn7gddjyQriIRkQSWC7ztzmmvoMFZEqd6YiuO+LDmZxGRZJAG3O+C8FdAWxWJxJNh2OLXpcAJKg4RSUKXYnkM5gF9VRwSD47ARjqvBUaoOEQkRc53e6k4JB6uCOfqilBEUsSuVLX4najikFjzAPdgfSKfo8xWIpJaAmNeKoGLVRwSK17gMRd8/4NljxERSTUtgUnuXPh3FYdEWxrwtNvhnkPTjEQktTUDPnDnxHEqDomWTOB1t6M9hCali4jo3Ci6yhMRaUJqHZSoyAUmKviKiNTIS9VqSv8BMlQk0hgFWOYXH/BXFYeISI08wN0uCL8LZKtIpCHaAT+64HuRikNEpM7+5oLwp0BzFYfUR1tgJrYU18kqDhGRervGBeHPsHE0IrVq6Wq+5cAxKg4RkQb7iwvCH6CcCVKLXOALrNn5bBWHiEij/dMF4bfQ6GipRg7WX+EDzldxiIhEzC0uCL+KTVkS+V0mNmLPD1yp4hARibg73Tn2KWy0tAhpwMtux/inikNEJCo8VOXRv1/FIR7gCbdD3K3iEBGJeoXnRXfOvVHFkdrB92G3Izyo4hARiYkM4L/u3Hu1iiM1BfojnkD9ESIisZQNfOTOwX9WcaSWS6jKV6oReSIisZcLTAYqgMNUHKnhYLfBJ6GJ4SIiTak18AtQAuym4khuQ4BiYB6WblJERJpWL2AVsALoruJITj3cBl4L9FFxiIjEjWHAZiwHf0sVR3LJA6YDW4A9VBwiInHnWKASW7xB3YNJIgMbbecDTlJxiIjErauxAbIvotkpCc8DPI1STIqIJIp/u3P2v1QUie06tyHHqyhERBJCGpaowwecpuJITCe4Dfg+WgJLRCSRtACmAVvRuJ2EswM23WiG25AiIpJYugArgWVABxVH4lw5zQY2Af1VHCIiCWsPoAz4Cls2VuKYB3gda3o+WsUhIpLw/oqN5blXRRHfrnUb6mYVhYhI0njGndtPV1HEp1FYjueJaIEFEZFkkgv8jOWMHqziiC/dgTXAYqCNikNEJOn0ATYAC7FFHCQOZAPfY2kmh6o4RESS1qFYusp3AK+Ko+k9ifUNnKWiEBFJejehTFlx4Vy3IR5WUYiIpAQvMMHVhEepOJrG9tjyVd+j+WEiIqmkFbAUWI7G/cRcBvCNC8DbqzhERFLO3tjMl7dUFLF1G9b0fK6KQkREsUBFERt76apHRERQa2hMFWBzfVcC7VUcIiIprzdQBExF44Gi6iUsz/NBKgoREXHOw5qib1VRRMeZroDvUlGIiEiIV7CpSfupKCKrF7ARW983W8UhIiIh2mDTkn7DpilJBKQDX2NJuAeqOEREpBqjsW7Kl1UUkXEl1vR8sYpCRERqcY+LGVoTvpF6AMWuBqzE2yIiUptmwDxgBdBSxdEwHuB/QCkwQMUhIiJ1tC/WFP2YiqJhzsKaEa5VUYiISD097YLw/iqK+ukArAd+RhOrRUSk/lphSZt+BXJUHHUXmM+1h4pCREQa6ESsJfUWFUXdHOwK7F4VhYiINNLbQDkwWEVRszxsjcfFQAsVh4iINFI3YBPwI5ZXQqrxsKv9HqqiEBGRCLnYxZbLVRTh7Yn1+z6vohARkQjyAl9hyxb2UHH8sXC+BzYAbVUcIiISYTtgfcGvqCi2dbZrHrhURSEiIlHyoIs1+6goTAtsBYvZQIaKQ0REoqQlsBYbkJWm4oDb3BXJgSoKERGJsktczBmb6gXRC8v1/J72CRERiYF0LMviKiA/lQviTaxTXOv8iohIrOzvasG3p2oB7OcK4B7tCyIiEmPvAluBvqn2xdOAn4B1QGvtByIiEmO9sS7Qt1Pti1/gar/nax8QEZEmcpeLRWNS5QvnA2uA6Sgvp4iINJ0CYDU2KCslpiVdl2pXHCIiErcudDHp5FS42tgAfKltLiIicSATWADMJclbZW9xVxr7apuLiEicOMfFpjOT9Qu2wdZknKhtLSIicSQN+AVY5GrESedOd4Wxl7a1iIjEmdNcjDov2b5YB2wdxve1jUVEJE5rwbOAZUBOMn2x+92VxTBtYxERiVMnuFh1cbJ8oU5ACfCWtq2IiMQxLzANWAE0S4Yv9CjgA3bWthURkTh3lKsFX5HoX6QnUAa8om0qIiIJwANMxTJkNU/kL/JvoBIYoG0qIiIJ4hBXC/5Lon6BVkAxKbjShIiIJHwteAawFMhIxC9wrbuC2FvbUkREEszZLoadmGgfPAsbRfadtqGIiCSgLGA58H2iffCx7srheG1DERFJUP9wsWxkonxgDzATWIjW+xURkcTVEigC3kmUDxwYPXaptp2IiCS4B7BcFgkxm+dTYCOQp+0mIiIJridQAYyP9w86xNV+x2mbiYhIkngVKMUWFopbL2KZr7pqe4mISJLY1VUub4zXD9jFBd9nta1ERCTJfAmsJU6XKvyXu0IYqu0kIiJJ5jgX406Jtw/mBRYBP2kbiYhIEsoEVgGfxdsHO9BdGVygbSQiIknqThfr+sfTh3oDKAEKtH1ERCRJ9cPmBN8eLx+oPTb46iltGxERSXJfAGuwXNFN7mpXJd9D20VERJLcaS7mHdPUH8QD/ArMdj+LiIgksxxgPfBhU3+Q/dyVwGXaJiIikiIexPqCt2vKD/ESlp6rjbaHiIikiEGu8nlTU32A1sAW4AVtCxERSTHfAstpomV3L3FXAPtqO4iISIo5x8XAg5vin38NLEGDr0REJPXkYa3AMV//oCvWAX2ntoGIiKSot4FNxHiBhitc1XuYyl9ERFLUyS4WHhHLf/otsAA1P4uISOpqgaVhfjFW/7An1vw8TmUvIiIp7nWgGMiNxT8LpJ4crHIXEZEUdzwxTE35AzBPZS4iIkIzVwN+Jdr/aDsX6W9WmYuIiADwMrAZaB7Nf/JPF4AHqbxFREQAOMrFxhOi+U+mA3NU1iIiIr/LBjYCb0TrH/RzEf5GlbWIiMg2XsAyY9W5GdpbjzcP5Lt8S+UsIiKyjbddTXi/aLz5/4AVKPmGiIhIqJZAOfBQpN8411Wtn1YZi4iIhPUlsLCuL65rE/S+rmo9QeUrIiIS1gdAD2D7SAbgPwGVwESVr4iISFgTgmJmxMwDvlLZioiIVMsDrAQ+jNQb9sWmH12rshUREanRs0ApdVicoS5N0Ae6+w9UriIiIjWaAGQB+0TqzdZQvznDIiIiqagVUAE80Ng3ysESTD+nMhUREamTKcCC2l5UW612JLbUkpqfRURE6mYC0BPo05gAvB82AOsjlaeIiEidBGLmvo15k2+BmSpLERGROsvEum+fbugbNCdKeS1FRESS3CQsh0a1amqCHgGkuzcRERGRupsMbAd0bEgA3jsoiouIiEj9AjDA7g354y+AuSpDERGRemsN+IC76vuHmWj5QRERkcaYhc0JDiu9msd3wpYfnKLyE6lRc6A4zOPdsDzqwVpiK4ptCHm8ADguzHt8B/wY5vHzgc5Ahvt9M7YG6fNhXjsCGBDm8aeBspDHOgFD3MV3sOnA6jDvkRPmtSJSZTJwOpZPo6Suf3QRNv93Z5WfJKhMrAmol9uPW1XzunHA/cCjwDPAK8Al1bz2KWC9u/ncMbK2mtde4p4Pve0a5rX9qnltdQugzA/z2i+ree3D1bx3izCvPbya1x4b5rVZQc+XuTJZ48oznH+5sn3ClfU9wN+reW17YAegu7toURpcSVRnuGNk7/rUgIe7aD1D5SdxYBAwzAWN5u4+H7gK2Bjy2n2wpcCyQh4/ywXQUGe6mmSgVrqR6lPIfQdscrW+clfzra4G+AbwtQvUweaEee0CbLTkxpDXV/fe29Wj7C4PCXTNXNmEq7V/DgwNcyETbiqFD7g6qAbvcdvl52o+RzdskfJcd95pASwFbgnz2rHAzSGPbXa181/CvO81ruw2AUXu9hXwqw4diYMaMMCehBnQ7Knmj+YCy4nQag6S0rKArdW0sgwA2rqaamtXm9w/zGtvDKkNFrqT7J7uJB6sO3CuOxkXBp2QfwR+0+ZICNth3WCBi60WLsjfxh+b74cCbwe9LuBCwucwmO4untYA69ztG+CFMK/NcK8VaYwVwFTgkLq8uJW7ur1D5SZhpFHV9xgsx9X6PnctJyuwpsmHq3mfD91F3nTgU+A1qm++LMD6J1uo+KUWLV2tuLp9ZTzwFjbLYxbWt/18Na99G2sJXApMAz6m+oGpGSp6qcab7kLvDxXecE3Qg90Lv1e5pbztgb+44NfR3doDpwIvhbx2K9AD6wucEVS7qG4g35h6fI5CdxOpzYYwteRg59TjvV5y+3JboA3WStOtmtdejDWnr3AXliuBZa7WvkybJaV9Bxzhzo8LawvAu7j7H1VuSWk48CdsFG3HoOA6xJ08guUDB2NNt8uw3OArXa01lM9dvIkki/+4W11MAW4HugLtgN5YF8nd1VRy3nTHVCBQ/wa8i3LvJ6Mfg2JrnQJwMbXksJS44nVBtKe79cAG21wT5rUjgX8GHfhL3cnDF+a13wBdVLwitfrK3eqiGJuO1h4bpb870MFdAIcLwPe6Y3VR0G2NijxhTHP3O2PddDWajfWPSHzp6A7WcN5l22kjFYQfbQvWV5uu4hSJK9nu2AzVwl0sh04Ne6Sa9+mF9YNLfFkBvBP6YOiJOBdbQFjr/za9q7CRoP3crTnwAXBgmNeOx5q0AlfHS6h+9KYSJ4jEn9JqHi9yteMcqlq3elL9FKs3sWl7a91F+BysJetxFXGT14J3qS0A74iNcp2m8oqqDtgAp37YvMbPwrzmVGwKzxzgE2xqWHX9Q2+rSEWS2hZs1PasWl53BdDfnVv6YoMde1UTgA/CBpfNceehjSrmqPkRG3vThuqT93C2a94YpvKKuHx3JbqBbZuS7q/m9cr+IyKRUF2X0xsh56IVWOunR0UWcScTJiNW6IYZ4F40W+VVL+2wZp9BrhXhmTC12k3AKiwzyi9YE9JsrH8nHJ+KVUQioKKax4/BmrT7BtWa81wMCHUEMAqbATEdm55VpKKts0Dr5UBqWOL3A2CxyqrOdnRXjcFXkUuAE1U0IpJELsPm9QfOcz5spkw7FU2dZLsLoQeCHwxtaljirmwOUnnhwQakDcbmyI7njwMfWmHZm6ZjOXCnU3MSABGRRNbFVTwGYQtmnAFUhrxmKJZ2caq7LVexATaOZymwX7gn89xVzZ0pXkiDsTSJhUFXe8VYQgoREanZWCwNbeD8+RvwOtbcncrewrohfxc80Gd7V+tLhf7fdGxZuGZhnivHBkw9A5zmrvLygfd0XImI1OpxV6EbDvwZ+J+LL+HWwy3A+p5TwSysyb51uCfDjtJKEs2wDFD/cjtDkfuuI3WsiIg0mZPcuXgltiDLpVgrZFoSftezqGGW0b/ck52S8Isf4b5bOZYY+x7gSFezFRGRptEBOB14ApsdEmi2Hp6E33Vv991OCvfkM9ii14k4Bywdy6f6Tyy/aqiWwGi0nJ2ISLwH5GOwJESh+mDriPdP0O/WyQXgf4V7cjLwUwJ9mbbABVgWqI1U5UAeo31YRCTpnM22A7ueBo7H0vQmAg82oPeZcE+uwkaqJYoRVCUNeQBrZi7QPioikrS6YlOfnqMqB0PvBPr8PwFfhj7Y3H2R2+Psw7ZwVzjhFsHOQMPaRURSlQdbsCacfsABxN/Kb2/wx3XXf09BeWEcfMBWWKf8f7EE5PHyuUREJDHc6mLHWuBJLDFIVhx8rnuxfBvbfJYx7sMe1sQfrhtVE7jnArdho+GUHFxEROoqC8vo+DiwxsWU9YTP/RBLl7vPsl3wg2Pdg7vEQcFdgaU5ExERaaw0LP3jFXHwWY4lTA6KG9yDbWLwAXbEluD7i/YLERFpYtcC/wA6xuB/7eZi7WlQlYqyK1CKrXYRDdnuH07GFiw4K0bBXkREpCbbu0roYmwm0Giitx770qCY+7sPsT7XaPnMRf3p2IAqZaASEZF40Q24CVu5yU81c3UjwItlZHw4+MHpwBdR/HJjgD20jUVEJI5lAEcB+0bxfyzHpiP9bhWWCLuxRqIRyyIiknwysdXxGmsa1h2LFxsh1hpY3Yg33Me94ack52pKIiKS2o7CMlm9hOWlbqhV2LKE4H7wA9c14I2GAB+4v58HnEJyLiMlIiKprQU2WnoD1o/7KNClAe/zHLAp8MuOLoCeX883aYeNnF7m/jZD20dERJJcK2ActnrgKuqfYesuF3NzwCYo+4GjG/BB9gu8iYiISArpCBzYgL/7m4u53dNdNMdVq+vrE20DERFJQSsIs7BCHQRibYGXqiX8agrApwUFahEREQmvMzVPuy109y2DA3BhmBfmYSO+nnFBWERERKp3NfA5NmDLW1MNGCz7hx9oGfKijth8pS1Y9irN7xUREalZDvCIi6svYvOHg+3qnjsD4AFsfcLg6UN9gQXYWoq7qzxFRETq5RygApiItSYH9HYB+C9eLC9zEVAZ9IJu7gV7AV+rHEVEROplPJa8Y4ir1AYUuvt8sNUflof54yyVn4iISKOEdu82cxXc273ul5Iwf7RV5SYiItIooTOMtrgA3MyLdRiXqIxERESizu+CcLNADbhUZSIiIhITJUBOIAD3BO5VmYiIiESNB3gWSA/UgJtjyxEuUtmIiIhEjR/IdhXfZmAdxD6gvcpGJOFotoJIYjnUBeKpYP2/q1QmIgmjI/AfqkZTLgH+Qvi0dyISXzKwBB2LwRJwzFaZiCSEgVS1WvndLfDz+wrCIgmhCMs0SUWgKiwicS0N+MFdNPuruV2sYhKJe2uAdbir5x9UHiJxb0QNgTdQE56rYhKJe+uBQq87cJupPETiXu9anvcAvdDKZSLxLhOo9GLNWRoBLRL/1tXhNRvcRbWIxKc2rtK7xYvlfC4Adla5iMStdCxhTk3B1Y8triIi8euE4AvqNdhUpAdULiJxaW/gJxdgF7r70IFYldh0wlYqLpG45cEGPRcC3wCsBGYBZdgUBxGJDx2xtHU+bNDGpdhI6BPc78EB+HOs/1dE4tdZ7nidC3wFsAx4G5gPTEIDOESaWoYLthtdzfZZoG3Ia3KBb4HVWPeRjluR+NYaa3F+DWvRmgSWRedt4CAXmW9WOYk0mf2AGe5Y/A4YXsNr38OapEUk/i+qPwI2AV3cMf4prir8gXvRze7AP0/lJRJTXVxN149lyLmU2rNaKQCLJIaHsaRXh7vffwU+BJiO9R+BNWO9iPUHH60yE4m6TBdsi4By4D4gv45/qwAsEt88wDh3YX1R0OO/AW8CTMGaugKysZyyFcCFKj+RqDkUG3vhBz4Ddqzn3ysAi8SvDOApd3zfFPLceuAFgE+AmWH+8Bn3h7diIy9FJDJ6A++642sZcBoNG0SlACwSnwqACdggyovCPF8KjMedCBZUU3W+1Z0kPgU6q0xFGqUZcL07+Mqw5uYWjXg/BWCR+LObOy5LgGPCPB9IAX0fwKvYXODqHIll7FiLNZmJSP0dCixyB95EYEAE3lMBWCR+eIGrsbEcM6m+S6m5Ow+MA2uj3lzLG3fF5iz5gXewEZsiUrt+2CwDP7AUa26OFAVgkfiwE5ZYw4/NZsit4bUd3OuuBbjH/ZJVyz9IB64CirGE7xeivmGR6uRizc1bsaao67EBjpGkACzStPKAe7FBy0uAI+rwN/0JGhV9nfulXR3/YTfgLfc3U4HR2gYiv/O4Wu5KqlqMekbpfykAizSNdOAcbBBlGXB7LbXeYHu4c8MpYHMQ/UDfen6AQ4E5VA3S2l3bRFLcLsCX7pj4FcsuF00KwCKxv8A+HvjFHecfATvU8z0CWScPBjjd/TKsgVcBZ7uqtx/4LzWnzhNJRi2xEY0V2HiK66m9S0cBWCRxeIGjgB9drPsG2L+B73Wye489wVJj+WlcU3I28BdsObTAyiyHoATxkvwH5WnYggiB5uZuMfz/CsAi0ZWNpWb+1R3jM1wgbkxsu9C91wCwtUb9VC0S3Bg5wPlYfunAhz3LPS6STIZiWeT8wGxgVBN8BgVgkehoB/yTqrEck7BuV28E3vuf7j07gU2T8GN9wZGsGRwKTHbvXQg8CgzSdpUE1xprbq7EZgNcinXFNAUFYJHIGuJiVYk7xt/BBk1F0gPYGt8ZYCmz/MD/RekLDadqrnEg5+2JRH5Khkg0pbtgW+gOnmeB9k38mRSARRqvDdaFGhhUvBK4hejNXngZWxf4d1uAx6P8JfOBc7GFiAO14mddTVnziSWe7YOtGhaYerdHnHwuBWCRhsl2secVbK6+H/jexahoVw4/I2T9hSWuqh0rI4BHsBUh/O7/j6P+q8GIRFMnd5How9KxXhpnF4sKwCJ1lwbsBzwJbHSxZwFwI/WfhtsYs7BFkH73HTasOtYy3VXIs1Q1US/A+thGoFHU0jQyXLDdhPUDPYs1U8UbBWCR2oPuCBdTlrsYs8Ed0wc0UYxZB/wn+IF3XC20KbXERky/i60W43cnl7uw+VJe7UsSA/u7K1Q/8C0Nmx+vACzSdHKAw4CnqWplXY8tsXuYq/g1lUx3UX9f8IMPYUkE0uOkAJsF1YyLXAGuxdrrT3PBWiSSurr9ze+ulBu6Rq8CsEjsdcf6b1/BWq78rqYZGGeUGSefczv32S4PfvAa92A8rnKUCxwNPAGscJ+zHJuX9TdsapOaqqUxV8vXYwMRA2v05iXIZ1cAllSVCYwEbsPyTfjdbRZwh3suHgf3jnSf87jgB09xDyZCPueBLvB+5AKxH8tE9Iq7AuqpfVPq6FBszIEfGxSxQ4J9fgVgSSW9gmq5he643eJiwd+A7RPgO5zmPvduwQ/uEy4qJ4C2wEnYqLbFQVdBc7FR1sdiay+KBOsDvO/2ld+I7Bq9CsAikdEXGIsNWAqke/VhU1nvwhY1aJZg3+kf7nt0Dr2y8ANXJNEV0tqggLw8qIY8EDVZp6rAGr2lVDU3N0/g76MALMkizZ2bz8X6bRdXc/7unODf8xF37tmmeTwTG4R1fxJtUC+2PNwlwKtU5fT0Y2s4vuSeG4ZLCSZJ7dCgg/ojEqO5SgFYklULbE7uP9x+vDHo/PwLNubndFepSibvV3fMLnIFkcz6YcsnPg3MD9rgW7C81XdjzfDddHwkje2B/7ntPA9bpStZKABLolSGBmLTTMcDP7sKn9/d/4i1RqVCl+GvrgLwBxPdlUcqaY/NC7sF+JSqKU+BZo+3getc7amTjqOEUuAO6nKq1uhNtvzjCsASbzxY3+0JwO3AxyG121XuvPp3YF8SuwuovtKwtJePhHvyUaxtOj2Fd540bFrTudjArp+oGmntx6ZBvYelLjsCm3sm8XcCOI2qtanfAXok6XdVAJamlI6taXsK1nr4WUiw3Yy1LN6HDZbtleLlFZgDfGVwAQbMx/pCu2FTM1JRJZZ0fzrwmHssw13RDQm6XRlUm9qEjbqehSXqnwpMA4p1fMbcYOBBbDrdr1gf0gcqFpFGK8Cm6Q1xQXcgNsYmMAq52FVYnnbnwJlYU3OZiu53vd39vHABeF7QixaorH5X7nammdjoPLBBazu4HXBHV2s+GDjVPR/IaT0dW6x9jrv94gK2RFYrrKvgQmyE8w1Yt4IOfpH6aQf0x8bL9HPnuUFs2ze7xJ3b7nNBd5qrhPhUfLXWgAOV3T8E4F/dfT9s0IpUrwz4wd2CdXY7a+C2owvMwWnQlgcF41+Cfg6M0JW682LNX3cBrYHXsBRvS1U0ItXKcMEgOND2x1r6gtP8bnLnp3eoahmcjiXBkPrr687x1QbgCrchpGGWuduEkMc7Yc02vbCmmwHAGOCCkKD+G9aUPdPVoGe5K8wiFe0f7Io1Nw9zV+BHAl+qWER+19Kdc4LPO4GfgwckbnDnmleDzjszsfEFqhREzkBsttHmcAG4zEXmgSqniFvubqFaBV19Bl+JjqFqbrLf1eh+dRsv+LaQqvzYqaIjlv/1FHclfpkLxJXazSQFa7JdsUGGwbde7lwSvIRmCVWtbu+ybStciYoyJgZgU64IF4BxVz37qJxiZj3wtbuFHli9QgJzH+BAF4CCl2bcijVfL6rmtiKJTjZ/xkagtwCexzK3rdZuJEkqHVsgJzi49gz6uTPbZlQqcxfrC11tNnjsyRLVZptUAdYS+nxNAXgWcBTWEa8TW9MpD7o6DZWJTX8KHITBPx/iAnRwqs3SkBpz4OffXK18hQvi8Wxf4AGsdWYqcBEwRbuJJLhcV4Nt747jniHBtkvIObrcBdhF2PzawDG90F2EL0MDoeLVwKAYW2MADrxYATg+lWEjDudW83ymO3B7uSuujlT1A41xB7Y35G9Kg4JxdfdLiH1fdGfgVmx0+XqsufkBnWQkzuVg/a8dQ47BTiGPhVvXfAPWD/sd8LL7OXBbgo3TkcQzwN3PrCkAz3D3O2KZoSQxA3TggA0nm6rmq05hTgpD3M/hskatqyVIr8EWwdjQyO+QiQ1Qu9l9jsewzDnrtHmliaRhI+1bY6uwdXE118B9V6zlsKur2Yba5GqoK7HZEyuDfl/mara/KcAmrR1dxWF2TQF4NpYXeReVV9IqpapvqLar+I5hAnTgfld38smr4f9sCArOG8Lcgp9bgzWxHeBqudsDk4CLsakPIpHU0u3LLcPcOoZ5rh3hF3gPbj36GZvCGXphugxN3Ul1u2ADaTfXFIArXC1YAVi21FKTDmgVdMJqG1RLCL4F5ke3rqZ2EFx7z3T307C+rdNdgC7GmsA3uZNZUcitEA0ySRUZWA7hltiAvOBbgbsoDDzfOqTm2tq9rjob3cXgOndbEPTzOtfCsyqo5rpZm0Nq4XHnvz8sdhQu7/OPwJlY01+pyi5udAb2qONri7A+4vkx+Fzr3W1mHV+fHXJS7AIcj/VPp7ua+RJ3Ih2BTaXIr+N7F4cE5Q3uvjjMY8GPV7rA7g+qqQQC+iY0xamhsrBUhYGAmeaCo8dtX9x9aBBt6V4f+ljg57osquFz+2UgaK50lYtAIF0TElgDNzUBS6T1dvv9j3UNwIGF66eq7OJGX2xVpnxg76AT2PeupljqTkyZbtv1clfoTwJ3Ej+5qUupSlhyKDatqAfwCbY+c3WBPD/kpJzvbi2CHg9+LPB4t5DHmjXwcxdjTeQl2KjxUtdKsNU9Vu5eEy6YB6suoAfeN1yrwOZqAkwbrKvg2BrKzBvm8Vy2zc4WGjCDVRc0Pe7xNFeu6UHvm0PDV57aFHIRtREb4Tsj5LGNIRdWgccCv2tuq8SLQIvytHBV41DDsSke5wCPq+zi0rPYyOAt2ACQcKOTO2IrlJzgasOjsWkL8XIxcb+r9f6GLcr9bIz+dyCgBIJyZg0BJLQGl+5e6w2qlbcMCXah7xVc889JkP2rKKQmGHrREbgoqHCv9bngB1UD8EJbEKq7gCkJao0o1KEtSegW4BpsHMGa2gJwjjuYngTOV9nFpXlYLteJwKgaXpfuapR9gW/dxVVTysVWkrrGnZTvx0Y6p/LKUYGgHk7Lah4PBPn7sLmjhwXVxEMFauThBIKkiETPRCyRUp2Xr50arroscaELVett/rMOr38i6PWDm+gze7Bm0kA2nnfQ2qCRoPWAReL/ArsIeCHck95q/mgKtgxVc5Vf3BkZ9PNndXh9cJ9e9yb4vDtj04lecbW0g7G+Xy15KSLJbmcXRyfX549OczUV5YWOP+PdttlM+IE0oRYG1YBjudBGS6yJtMJ91uuxPlVRDVgkVVzqzr071eeP+rk/ukrlF3d+ddtmYh1eOyIo+E6M0efzuAu4VVQ1N3fXZlMAFklBr2BjqtLqexJdB7yh8osrnal7/2861uzhx/peu8Xg8w3BVnbyY/N5R2uTKQCLpLDfgA8b8ofvYgsyeFSGceOkoAA8oobX5QIvutd9imWpiqbWWHNzJTay9m/UrXlcFIBFklUPdw6+riF/fJX74/4qx7jxGNX3/xYAw4B/Yflnp2IZpqJ5AZWOJW1Zi80FfRablywKwCKp7hR3vt6vphNodSa5+30IWcFBmkxgUNx6tl3YuTk2z6w3tqrK8UHbL1r2xhZNGIRlTzuceo70ExFJYntig1C/bWjtZhPWlClNrxNVzc9X17DB12B5b4dF8XM8S1Wu3Uup5wADUQ1YJAVMx1IFN1hgaS1peicGBeDdanjdxVQNvMqN4P/PcME2kFrwWWx1GVEAFpFt5bna732NeZN/upN5X5Vnk3vEbYsiFwyrMzwoUB8Sof+9H5bS0g98R9OntBQFYJF4dpA7Xx5f04u8tbzJR+5+jMqzyY10919iSe2r0zvo5/xG/s8urqb7Mbbu73ku+H6jzSEiUq0xWDfdp415Ey+WUOE9lWeT6uA2Zk39vwH3BNWARzXw/+VgU4mKXLC/LwLBXFQDFkkVv0aqovICtspKjsq0yZxA3fp/wUbcBV47qAH/K5Cn2Y/lmt5Rxa8ALCJ11tOdP2+IxJud6t5MzdBN52Hq1v+bhi14EAjAHUOez6vhb3u7E7ofWIalk1QSFgVgEamfC+tYWaqTttio13tUrk1mttugH9RhWwWCbyXbzvNuBfw3zN80wxZKKMUWWr+P6tenFQVgEanZO9gUzYhNz/wOy+0rsbd3UFC9u5bXerCsVH7+uDj7TfxxRN6hwGKqFmtQ1jMFYBFpuCyspfKlSL7pTe4krUXUY+MibNrPkqDgG6jVLsAmeB9Yzd+eRdWArUEuKJ8JvE5Vk3I/LEG4H5gPHKsiVwAWkUYb5c6rp9flxXXt49sDSzP4Z6w/UqIrH1vgAGwpK5/7OQfIdj8vpfrpSHtiffc7YE0hXwF3YYk5rgb+4oL57cA4rPlZGi4DSwea7bZRLparOw9YVEuQzAEuCXksnW27Af4DTKsmAA/A5mkHRsf73D4T6kFsZZbq9KVqqtsmLIlAobsvwsYWzAraF0Xkj+5y59fOWE7+iATgNGw60lfAYSrjhONxAfl2bLGEd7GMWYtSvFz6YVO8CoJu+e6+hWuFuBe7pPW6oJruAm4GkJYOMyqtfz2sofD8d5bO1Rv4m+Dnp0PzneDpaqL6Vi9UXgDP3WMp7TxYE1cgYp6/Gjo+AI9fDGdVQmZ5SH53H3jLIfsRuPa8P27vUne1zsmw74s2eKRa38NeQ2CDC8Kl7r7MXcyVF8A5RXCCzxYLKQWK3UXiRhfEl7kTlEiymgVswZZmjVgNOHAVfoirmW1VOSeMXVztZw9gLpZOckISfK9MbNBZB3dR0dbtm4EAugm41m/7eHbQLSvwc2sYvx6GhryvPwu2ZEPJLvDLp/B2UKvDH5wNu5dBenPYmg6+llCaBr7WsDUTKofC+sH2WcLygWcVZHZswDE1EE5ZAe3W1z42oFabIH0lZK5yAX4jZJRA+gbIKgfvOsj+B8xKdwE7nCth54+h32bI9oG3BDIqIH0rpJdCsywo3mgXfqXuHFIa+nMe3LMZBgOFPgv2hS6AF7rbTGyRc5F40xXrNvw/al+vHah5NaRQH2CDePbCBuxIfGuJjW6+0J3cbgBujfOLp9yggPpV6JOuFtoMyO0It60M08/igcos2NIeVi6yWldWdf/sQZhaDNPbwZYOUNoJtnb9Y3N8dk0f+An4ujFf2Av+jnGwTfKgIg8q+v5x8F6d3WHN5NPq0OpQrVMh7WdYWwxZm6HLZui9GbJKIXsr5PSEH+fbNipxNewSrMZd7O5LPFX5d9dgLXcr3c+r3c/FOj1IFBzk7j+s6x/UpwbcDluYYTxwgco6bnmxdSjvdLXCd10QXhJHn3EnbGBYNw908kBHP7T1ByV7+QEO38X2zxysf7WFC9AegCeh+wxo1QFKusDmPlDUzQJvWaps6EjWgBNFMaQ1tybvavWAsWuhZQk094c5x3WEe5bbxegmT/iLH4+7qb9b6uN/WItjR2zsRERrwKuxzEjHYM1IFSrvuLOrVewYhk0bO5mqfN7RlO+aX3q4+3exQWL4rQbZ0t2aAy0uglGPw9gC2NgaigtgfStY0g6K28LmTlDcz5ohqz3RnmXTpxZrk//R/nDIo/BJ70bUZuviKyi4DXZ9Ozb7GNgOVFnbaxbB4wBl4P0Fmi2E3EXQfDk0XwO5I+xi7ny3fwYGmRViTd7F46HZefC2B5b7qvazpUG3RdjsAQ1elIA2wL7AE/WJjen1/Cev2PHNSNQMHU86YE3MY7H+xsuAf0fpIqkVNi2th8cFXH9I4o5LoN99MM8F5j8s+PEgbH4QbtNmi7z1kPEJDPsafop2AP4EOv7PLvo+iseyyATfjlC8ozU5r6rhHBi4QOwJMAJyj4LJK6BgDXRZBwM2Qn5lUBa6I+GsN+wcWAwUemroG5eUcIzbl+o1PqG+AfgNV8M6XgE4LqRjzcs3YFNengeucK0V9eVxtVcfQdNVXHBthQ1warUQOg2EU9tCYVvY1BZ+7gwbe0JhH9g4EDYNtJNSS22e2Kt0Ta7+GP6vZNMfNr8Gn4Q+/jM0nwH58yHvBJu21cU9VeG32vN6YB2wfmfY82e4xAe/YIn55wbdlqKAnWyOdxd5n0czAK+1C1+Odif+MpV7kxkJPIDN9f0BS95RlwFBre0cQ1+gD9DH4372Q3ZveH0uPIf1H7ciZBBTT6AE7lDxS6oJqk0vC3MebetuAJwHPZ+C0hWwy2rYvyxofIMHSj0wx2fdLArEia8DNjj5EerQRdKYAIyrYo/BJv9/oLKPuc7YAJJT3RX3Za5VosYN7wajFOTCZyUWtEmDsjawrhNs6Arf9YJ1+9vk8UEqZpGGuwAWXhCUgGU25E6GNjOh9QJovRGyP4PLg2rN61wFZ5XHatNgzftbsFp0uUo1bh1rp1Neru8fNiQAv4FlwzpOATimMrBMZDdho4GfA/7qDtoOdoFOF+Apv9VaW7kr8o7u1h7I/D/4IQO+HwrrdoVNXl2Bi0Rdf9jc36ZJBQ8czHEX1J1DLpYrgfUd4KJVMNAD5R6Y5YOfsDS0gdsqlWxcOA6ruEyORQAuxAZdHGkXekrKEQMHAPfbccwMLK9zc+AlD+zkd01faVC+xUYdt6nujS6zwVEiEr/SgLYvwsTPYOZ06LAA2i+BQzfaMqEA5MNThXC2BoA1qU5YkqMHaMC0tfQG/tNXgIOxxNPvahtEzXZYc/OxwIo8eHWT/bxDBmztCKt7wuL+8M0QWDUGVmXUEHxFJHHsB+v2s6bpGYHHFkP2/6DDVGi/vQXqq/2WZGSlq4Utx5qxfdgMhG4o5Ww0He/K+eWG/HFDA/Bb2By44xSAIyYH66ctAXJy4doSa2JOGw4fvQpfLYa8CfDqAbBsBGxI15WvSErpDqXnwKJzqoJqOlXdTLu4x3x+WPc8eE6Fh7ywzmcDNL/Cmkm/w/qWpfGOw0a1T4llAN6Epds6HGvy1IT0+muPrVq0p8fuh4yCcQMh6ykYWwgt+8DCe+C9g920oi6wYc+qARoiIuF4gbZ7QM6l8NY06DIHhqyGg/zg9UCFF36otGB8K1aDlgZdDzEcuIcGVobSG/HPX3IB+ChstRep3THAfl7Yz+dy4mbA1h7wWzf4YR6c+j/ongebroA37qg9r65Ig7wKHW+BfSogbSPkdofVL8IHXaH0PWh3PYysgLTNkL0zLHwRPleLS2LpBVvutSmKPwAsg6xXoeuX0G06dF0EF0yBLwfDbGCxJ8qJW5LQaVirZYPjX2MC8JvuymmsAnDN/LZyT+c8uLMM2vaFxcNgwmhYvDus/wvs/pbNI/OMginPwcT2mmMtUXIrbP8iDHka3hkCm0rB2wfO2QdOeQTeuhLGTIBXO0LZaDj0Ndi3IxTdB1NVeomrM2y9DOZd5gZiloE3EwZiN1wykYWBm8eaqftio603qgT/0MpwNjYavcHHRWMCcBmWeekyLKHDXG2T3wNuOjb4YTssd0U7wPMZvDoIigI1iXHQ71w4cSPk94X5D8B7o21akUhUfAP5T8Huk+GFtu4iLxt8Q2HeW7DPcXDGW/BkdygdB/0+d+uabraLSEkimX8ctRtIyTkY8PthVXu4YI3lBfjab92OH7qAk+oLVYzGmqAvbMybpDfyQzzmAvDZwNUpuBFaYktQHeKF4evhuHzbKL0Jc8IKrAv7FnS4HA5eAN1bw/rb4IWrbLK9SFRdBGPGwYS2IS0sm9yyi51h5UhLDsFusKYDrGoLG25yzZiSMjxAh3vh2zdhw7fQewnc4IebvLDeZ4H4XWxt8VQclzIWayF4qSkD8BxsZN0ZwLWkRraWnsBhHuv/3tsPaXlQuAvM3wRH5tcwIG0xZJ8D+30Mw9Kg8mj49HH4okArS0kMLIXsjdDsKJuyso0l1krDbrbKDwAjYf0KW9RDUtSJsOxES7352SLIeQZ6fQy9p8GBRXBiT7h7AVzlqWcKxgTXHjgM63pt1MVHegQ+zHjgaeBQLEtWsurjgdf9lnGKjrBsT5h0PMw52ubfVcsHnr/BTg/DmM2QuwP8Mh7e282SmojERGfY+n6Y1VoqwPObZVPjIM0ZlWr0gC3XwczrYCbYQL4e1p12pd/2m1nAr57knxVzOpaZ8PHGvlEkAvAr2DDsc5IxALv1bPuthF0OgMwR8N7ZMGfXOg5KeBU6XgWHLIKubWHdzfD6ZcpGJU3AC/5wSxS+CR1KIScbSg9VekOpo2OrKh4ZuIVdsDnIC1wwnuOpSrO5IIm++plYl+Hkxr5RJAJwoB38fKz/M+EXSXeDqHphqR/7AxkdgBnwQl3fYwHknA/7ToRh6VBxNHz6NExqnlpNNZIA3rV9nb6wKFODa6TR13n0dreDh8DeU2GMB77zw7NYs+36BP5+I4HtsYU0/JEorEh41L3XWQlYoOlY8/kNfltc/mBXuMdjo/8y6vNmFeC5EnbeES79CIYPhtmT4YHX4FMFX4lH37uF6Ieq+VkiK+1JmH4OvN/N+k0f8Fit+VXgkAhVAGNtLDaA8blIBZ9ICMyFOgu4kcQIND2A8z1wph/a5cH6QqCgEQOixkOP6+DgFdC+E6x8AF46KwlaBCR5lYJ3nrVcMSZMAH4MekyHtg9a+kKRehkERY9ZmsYpH0GbB2HnT2FUERzjhdU+uAp4JkG+TgG2CFEgB0ZEmgsi5TFsObyD4rgAPdgCEm8D87xw+VBYdR88sw7ua2jwnQ4tdoejz4UzN0De2TBhITyi4Cvx5EXosj8c/JTNUQc783Uvg6x0qDgizOjo8TBsFCxR6UljjYK1b8PEtXDPPfDsYFj9FxjqhwH+yMaiaDkNaEYEBl9FugYM1g98OzYv+J04LLy2HvjSD31bQOFB8Nm1MHUgFDf0DUsg7RIY9jzsVwaZu8H0p+GDfrbup0jc2ATpY+HULZCzFvLOdEH1aRjsAX9z2Bza//sMdMuBssM1MEsiKBN8lwVl5AKOBor88CPwXZymxEwDLgF+BT6JxwBchPUFX4VlUombift+S5gxbG8o3B/+8zeYk93IwSYPQ88b4OBV0K4LLL8F3jvVVsUQiTtFkLYVsrxQeazLMX4f9C6BrNHWPDhsJjQPXJC+De1vgf0mNHCZNZF6agHsDezhh5+Arz3xleDjSCyz4flEcKBipDvB73c14L8Cp8RB4G0H7A7sAHgnRWDpxB8g70IYNQV2yoGSs2HCIzBFieolnnWGrafBRx/DwNnQdiT02QxZH8DrLaBiDOSMgtP3gRkLoU0FpL0Dr/TSsnUSW+lY+tPBfpiXBycUwc/AXTRt3oS/Yv2+z0b6y0bSMuyK+UTg7zRR35ELvPtiicQjohjSLoNhz8H+FZC+D3z/OEzsrRVEJEE8BZOXwtSJ1mpTMioo7/hkeGMmNP8WWu0EPwbSpoo0EU8Z9NsBuk+xEdMX+m3pxAeJ/UXhCFeRuz7S/zsaHd93YO3lF8ewgLzA2EGwl5tGdG4kg+846NcdLnkCDuwKy9+Ahz+D/yr4SqLpCqVnwpJRYRb9GAjFZ8ISBV+JB5ng+wre+BD+vRMsB27zWr/x2cR20NblWHavR6IRuCLtZ+Bj4DwgPwaFM9QD3wLjt4MbsP5nTyTe+DNotQOccg2cXAHpV8Abv8JTGpQiIhIbo2Dtj/DyCzC+lwXCxz3wDW6lrijrg+V9fooonPejdRVxF9apfk4UC6YASxT/TR70vBVeeAM+jcQbr4WMY2DfUXDRbNhuFEyZA/ffAdO86usVEYm5k+C3ufD0/8GLebBdbj0yEzbCX12F7v5ovHm0MpF8gI1kuwy4j8ivknSA1zKRtDkUvnwcPm8Tof8xDvrdBgcXQkEfWHAfvHdghCZdi4hI4/wd5pwL83+A/NFwEvC+JzoDtFoDp2J5I+ZE47tEsx39XiwR93ERfM8MrI/5w45Q8R48/BZMjETw/QjaDIDTroGT/eB1zc1PK/iKiMSXNlA+2sYxbAec67e0wZF2MZCLtehGRTRzcb4A3ITNC36RCDTdvgMZZ8ARg+HbN+DDSORWXgOZF8Ceb8HeHvAdAl88CZ+HLlgukgg87jjzxOB/uat3dclIU8sCDvdbf+17EVoOMRub8/sd8GUiBuByrI/2VmA08GFj3swl0zhhgbX/N3oB+8AavY/C6CJovgP88gi8v2d8Tf4WqXfNYGeYNTQGK87sBqt3tWXnROLBAKCDH/7jgXWNfK+zsQUkLoryBXNUNcfWgVwC7NrQq2W/5Zg+HsvD2WhvQIcr4JCF0K01rLsaJlxhKcZEEsZAOGUFtFsPd6s0RH635QyY/gzkYP23Dan9zsP6lQcRxSU6oz2Xqhg7OQzBJlM3JPhuT1US7EZZBDmj4aBj4PzfoOPR8OkC+LeCr4iksgrwrIHMaLz3qii9bw1yFsLNHngNOKIBf/9nbPzSdUR5fexYTGZ+wLYB/1ff/+e3hcKPwhJ7NGrnuhJ2HgiXfAS7DYS5X8D9r8GnkWjOFhFpSmshw9fAFs150GwQnPJ9lPI2HAGH3moVqZh5D97fHuZ74BUsOVNd5WLjln7Glh2MqlgE4M3YKkk7Ygmt6xp8u2PNzo0Kvi9D5+1g7J1wVC5suRee/RleGA4bddiKSKL7DvK7wJV/b8BI4MWQvTeccSZ8E60ZH+/Afx+DETdZH21MNIfKSfBKT/jNA69S97K5GOv7/Ue0a7+xCsAAD2F5om+ow/9sng7vTrQkHg0eJDYPmo2Gg06Ec1dD21PgowXw70urlsASEUl4F8CftkL2YktOVGdl4D0Ijt0bZl4ZxW64NlD+Jrx8Fxz4BnSIVbm0gfIv4cXWUOS1IJxbe9zmr8BUIrBwTzwF4FJgHDAQOKG2YO2HUZvruTMF/SPvWNh9B7jsIxg+HKZ/D/c/B19EYtqSiEi8eAh6TbXzKqstgNTZGTCiEFo8GcVpNgE7Q9FY+PhcOKEwurNvttERtj4Or3qgJ7aQQ00uB9q62m9MptfFMqH1Y8AibEWJ6jbA7sCpY+GjhuRbfgx69IQLnoAD28KGp+GJr+H1wBqnIiLJogTSboIDA7+vt/S/dfID5L0Ge/8NPmwWo4rJOPgpE8ougD1jWU6Hw6qz4CPgdGB4NS8rAC4FvqKRU2bjNQCXYXOC+1DNWsEeuKUNrL7fJj/X2TRosTscfR6cuRHyzoYJ8+HR05toOUQRkWi7EHYbAIuy3RJ5hfUIwBfDAR1h9SUwP1afNx38Z8CXr8NeUyEvlmV1P3zbG+bmV19GV2K5Jv4Zy8/ljfE+8xS2wa/nj0PT9/DDyD/Dp5l17PwugbSxsPtwuOQbGLQbTP8R7n8cvs6MQQe6iEhTmAnN/wvDHoVP810L38Y6BuCpkPc1DDrc+jpj6iqYlQ6VV9sauzGTDb658Hxh+NbQNnZNwidEaEGfeA3A5Vh6yu5YppFgx+RA0T9gdl3e6N/Qqxf8+Qk4sD2sfR7Gfw2v97NR1yJJyweex6DHWmhZClmvQkeVSmo5G8acCp/3hpJ8KALYBM3rMhXpDtjFA/6/NkEWswKo2Bl++QJ2LoxhX3CQHcM8dg128fKvWH8YbxMUwPPADGxEdEHQBzlyKPxaW811KuTtDkdfBGeUQM5F8N8F8NhJ8JsOS0l206DFDnDqeXDWami7BXKOgwv2gKOWWgYfSXJPQbdl0OZO+BGgpavVVUL6kjrsAxNhl26wvIdruo61kTBvK2Q/DL2b4N938G87wLcPlm7yXWByKgTgSqyzuy1wrXusrQ967FNDf8R6t0bvbnDZt7DjKJgyE+5/AL5PV0J4SQGl4D0UTpljK8Bs42vY+bB6zLOXxFQG3n/BwbfCe4HzXmtXAwaYXctI6ClQsA5aDbIBsfW68LsUhpwJez4F3ULf8yLY9TwY/pE159boYFjqLgS2a6JiDP78gZWOLm+KD+JtogL4BPgv1u7eDygfBo+OtrnCfzAO+vWGi16HfXvA0rfhof/B+10js+qFSEK4DHb9DTr6q2lmnAb974S+KqnkdTHsuh0sOyWoxa9dUABeUEs/8OvQA2BgPWaZjIXdT4Ij2sCWnWDV1XD4nnCUDzz/gh0ugwMGwtrWsOUIGHsF7FzT++0OhdmwZY51RTaFwACw/YFDsWyNTZKOOL0J96W/AmPcFcgh38Bb2IINwVG69cVw4CzomwebroA37oBpOgylqayHjE2QXgjpRe742QQZmyG9GDJK7D59i3uuBDJK7feMre7xre65rZBRZr9nlFc9ll4G6eXusfKg5zbVYZDN/6C3cpsnp3nQ7HXYbTI8Hvx4p6AAvLiWfeRnlwhjZ1tLt1YXwLCF0GoWPBd4rBgmXgsnHglFC6HdD/BiOvi7wXkl9hl3vbOG87QX/G1h/XLoUAre7BgOmF0PGf+EkVac3AOsBm5uqm3alAF4PnA/Nvz7TwStv7sWMs6HEW/BXn7wjIIpz8DHHWGrDsPU4QNPoE9rnQW3tFJI2+BG0K+BbD94iizIpVWAd5OtDcomyPaBJxDwfODd7J7bDFl+8Lrgl+6312W7AJhVCd4KSCuDDMBTGqW+VQ/4stw+nQ1bveDPgIoMKPeAv5n10W1pBmVp4PsVuhfV0MToAf+W2Ce+lxg5C0YfB1+HDjTtFjSyd0UtAXiFTbWhC5TU9v++g/xJ0O8nG7fzu+7u//0X9nodHkoH/1rIWOaC+w6wuLb3bgmblkLnqZAfyyVgJ0Hrh22xhVbYgKxzsVWPUi4Ag42IPgW4ez2c3Qprbr4NDimE/L4w/z54/09RylEqNdfysD0zvQjSQ2t57ko4fQukh9byAAKBL1DLC9T4yt3jZSG1u6AaX+CWURml/TMdKtKh3AW7CoBA4GsOmzNstD6ZUJHlXpMF5e73coAsqMhxz+dAeTZUNHPP5UBFc/u9ojmU50JFnnuuBVQUQEU7KKtvAoT94eBPqk8kgB88fe2KXpLMK9BpIbSfaF132+gZVANeU0sAXu8WXOhQh8rMVbD3RfBl6Bibn6A1QGtYfxSsBEv7+CQ8tRRyr4Jf6hCASwB+gbxYBuC5Vc3Pp9tX4cmm3K5NHYCLsKHf4w+EY9fCkQugRytYfxu8UJcNmWxBr7AJmjYDQa8MsnxRGhcQGvQCAS8Q/JrBlkDACzwWHPQCAS8o+P0e9AIBDyA06AUCnrvqL03kAXt/hymTYEglpIX2A3vAnwMl16iLJum41dwOuQ4+CDdLpH9QDXhdLQF4q7WQ+LvUIQB3gcLzwgzWmm2LFdA/5Ln6JD7Kci2e61yrVKxMgw4eqPRbDfh4mjg9cXoc7F9PAud9D2e0g61Hw6ePwxcFMVgmMDToBQKeq91tE/QCAc/V7rYJejXV8kJqd9vU8gBc86YnChu2Ij0owAUHvUDAC1fLC3qsPLSWBxAa9AIBDyA06BVAeYGWe4yY/WHdJfDOvXB4oMYbCL4ZUH4LvN67Dk2Lklguh8HLoMMNcOANtZ/TahwFXQ7pGVBRl0RFz8EX4R6f5UYR7w4LG/qdMl3gq4zCua8mkyxvtgd4HZjY1Ns2HgKwD7jMB18Mhu8Hwup7oF8xZJZBWjmkbXb9Wq5fj1IXyCrBuyWoX88HnkCQ84G31D1X6p6rgPQK69eLuAwoT4MKL/iy3dVdDpQGTo7NYEsalDRzV57NrM/PFwh2XvDnueeaw9Z06x+syLXnaO1GfOdDWRZUZkNlS/d/OkOpF2gF5VrfOLndBT/uDcuvh33nQ1cv+PrDonvg492asC9LomMR5LwEe46Hp3NrOLbPgxMLIb+olhpwGlS686CnIa1BqyBzCXQCOLqeU5mCBc7pLdzFeyx8AS1/s6Q1FcDV8bB90+NkP5sMvDYBjn0/ZCR0XWt6obU8L/jyoSijqhlTTZuSFA6HVYfDf1QSye9s2O9Y+PrMWpp3r4aNhZBfWzrKbCjzg2cVZHZuwKDW56CHD9JawfrGrKle4gY25sUwAF8Oh3utxnc/cbIsbXoc7WtX+uGQEVC4H3w5ENZ5wN/B1fxaWfCrzIHK9kEjpkVEktF/of1c6DwBJtT22gI3EKsMMldBZnXnyFawaRl0XAlZDQnAn7l5xAOqqf2Ohx7n1KFmXOQC8MBGBPH6eB26fA+9/NZKdF28bGNvHO1vi4F/fA0dn4BRh8CqY2HFXrBhL9gwEIp7wBYF3+S1GLIfgl5fhVkLehK0uh+2+8aN4hRJZj7w/AUO+T+YUJf+2uBsWDNrqAV3cCOOF9W+OD1LIbs0JEb8BL0AhocJshOg7WMwrI414Jw0qBgU9Lmj6Q44zHU2n0McLU/rjbP97r5KmLEMCo6CQ3QYpo4J0HY/OOk76HggnHOUZanhY2i9E5x4CwybAW1PhqOPg31VYpLMzofhbWDjqS5tY23aBgWV+TUE4AFu2tA0N5WoOlfDoB5wdUe4rMzFiUnQyvWhsmuYqaG3wp6XwNd1+byroHVHWB2LrrufoEsxtPNZvufX4mk7x1sA9gEnApUfwpBrYCcdiqnhcvjTs/DmUzB5GMx6E/b5B+x4Hhz+DLz7AXzgBf986P467FMYX90nIhFzBez8BIwZAMvr+jdpQbXk+TWstXuoS5IRyIhVnZdgN58lpEn3uiD5T9irq0sXXB4yevl26JcGlXW5YJgOLbZAs4GNGMRVV2WQdjOMmWlNz2PjbVt743D/m2EXU3AbHHkz9Nchmdy+gJa5sDUwIT8wn/keOORxeGtn10z1HgwGPPmwMa+J5++JRNIr0Gl/OKQT/Pkuy7Oc9iLsNxyO+bia2upH0GYMHLgDnPKiazECeBRGjYTDD4cDQi9U94d1eVD0cy15mPvD0mzYcg+8vAnST4a9MqDiM3iuLay9G/bcBOmrIPNk2OtV2OntOvRVA7zq/vd+jZjGVFe3woA37P/9lXrkv46VeK1F3AwcDfS+Do5Ng1eugTk6TJPTw7Dj/kHbd6Gb5nA8TBoJ6wOPXw0fvgd9LofvvRp1LkkkFyoGwModYXk+bN3ikuwAtKtmsFQuVPSFNX1hzQEwK9+9bj3kuJO7r1mY/uO94acJsNtSyK5uQZu34MNLYMNDsPu9kP4nmPGCmxf8LYy/AnYfAcdnQvmfYPZz8GVdj8nPYbtmsPnPUR6J/DVsuQkO88GnwLPxuN09cbxP7gZM9lhqvXYXwTv3w1QdqsnnIBhzP3zRG0qWQVZXWyDbsxBu7a4Vr0QiahK02gcuvQLejPXiNsWQ1g6u3AemTYAPovV/KmFmNlxeYSszDaKGpW6bkjeO95MpwCN+W0B5IraEoSSh9+HDQAanF6G7H7wdYZWCr0jk7Q3rB8LcN6xLJ6bGwYAyyPw7fBPp9y6BNNdc/1UmdK6APbBUx/PjdVt443xfuQbr1N/+AXjKWkY0DSmZfQY9ofp5hiLSeA/C+4uhyzPbLk4fVT7wPAl7Hwxf7xXhBRg+g1b94KwD4QQPLPDZQj/TgPvieTvEewDeBFyI7SR3eOBn4FGCFqOW5DLdBeA96rCkmYg0zEhYPwa+uQFGV8SoK/JqGFQMuQ/BpEi+719hl9FwwXLIKrdVjh4BmgFnEOepeb0JsK+8AzwDnAcc7rHh5M9g6St9OpSSx2LIdmuK+o9TABaJqufgkwpIu7ie6X8bYjbkPgJj7oRXOkdoXfcpUDAITroHjqyAj3ywAzAAGI3VgH+K923gTZB95SJgLvA40MkDPo/1CT8O/PYd5JdAmg6pxPYi9PCDtz2sHRhH2WpEklErKH8LXnoF9nyylmlJjVEMaYfC8SfDZ+dGoGupBNJOhb32ggtn2oyJ8/xwGNAOuMVVzm5JhG2QKAG4GDgZS0P4NFXLsK3ywFP7wQE94bx7oI8Oq8T1ucszOxAWqDREom8wbHoLnr4BRn9cS3ashjoEDhkNMx6GbyPxfsfB3s/DARXwqg/6Ao9hK9+9iNWuTyFB8gQkUq1xubtgOBtL4D0l8EQZzC2BfT+E/Z+H7i1h3U7WfywJ5BoYtQlanA6TR4ZJdScikdcdSk+CGV6rQkZ8kGsvWBOhOb8VwDf/hmeXwtvA3cBm99w9wKFYtqsvEqXsPQm2r3ixpufdgOFs28afBpzuhRt90GknmH09fHaEy30q8W0FZHWBa3zgmQO396s6sEQktfmB2cDHnvBrXv8JeB/L83xcIn0xTwJujK4u8K4AhgJbQp7PBi70wN/90HIAzJ0M/ynQQvVxbRHkDINzdoL5H8F7KhGRlOfDZr5M9sC6al7TFpiOrSu8ExGe3qQAHN6pWGqxB4BLqnlNc+DcLNir1Ial74JL7SYiIvGlDLx3QL9XYacv4JoW8Lmn5vWCPcB/gYOwXNifJdp39iTw9noBWznpMGyZqdraMJphw+0Hu+AsIiJN7FdodhMMeQeGbIRWXvjVZ1OJapuKeDFwPzbl6F+J+N0TOQDnY03R2a52u6Iuf+S379wHWzi6pw88SuwvIhJbL0KXf8Owb2BgJaR54H9+eBBbVam2HA+DsIG404ERJGgXoyfBt+Ge2EoX32KLtJfX54/90P5COPc1+PNBMO0KmK75pyIi0eMDT3cY+xt09UChH54EHqbuI6ULgO+w/t8hxHGu52QPwACXAvdSc39wTfbywM1+2MsLvoEw9zj48SKYW6CBWyIikeLHEnFMz4LDyqyJ+XXcQiz1iFmvA0cAxwBvJHKBeJJkwz6N5QA90/3cEL2A07xwpg+6ZcKWIfDLSfDTRQl8hSUi0sRWADOBGR4oauR7XQdcTwL3+yZjAM7B0o/1x5qlf2jEe3mBvYDjPXBMR5i6DF7Gpj+JiEgYmyB9PPR8E3a4F/4z1JYcnFHDFKL6GoX1D3+Kzf2tTPQy8yTR9u8BfI9dYQ0lMhs9DWgJrPVbf0N/LPVZRx1uIpLqFkDOY9B3Imw/HbYrh2wPrPdbE3EkM1J1B6ZiY3SGAmuTofw8SbY/HIKlKPsYODBaV0h+yAW2AwZ8C7s8CjseD3NHJ8lOISJSHR94zoHdv4B+86G7D7xeWOqzc+/b2HzcSI6fycZaOAdgI56nJktZepJw/7gRuBbrJ7gh2v8sD07dZElByIP1u8CC/WHeGbCgK5TqcBWRJLIJmJ8N95fZCOa3sGQY06L4P5/C1vY9y/2cNJIxAHuxNYT/hCXpiEVaw87YxPExHhjlh1YeqOwOS4fBgpcTMEOLiKSmMvBmVs3DrQCWYiuULfRU5VvIJTb52gPJNh4CLky2svYk6T7UCusPLsAWbvg1hv87DeujGOOBMVmQt8WmR/XA1q706hAXkXhRAmkvQ+cPoecP0HM5tFoLR2XblKGlnqabjrkXMBFrch5JFFZqUgCOnp2xQQArgd1puv7ZNFxftB8ysdHUPbBBBR0B73josYcWoReRGFgK2c9DjynQZRZ0XQSdKmw93UoP/OC3FedupH7zcyOtL/AVtr7vMGBZMm4LT5LvawdhgwJ+dFdQJfH04fzgXQadulnu05w8WNsPVuwES/eB346AFc2TYKi9iMSN4uug9Y3wD48Ft6l+C3SfA5OIj3XUWwNfY117+2KZDpOSJwV2uHOBR4FXgROoPcdoU2yDobg1jr2whw96uqpzeRdY/nf4+FxrDhIRqdY3kJ8O/iEWSH3AKqv0sgJY4tbTzcVGFE+jnul7YyAbm8UyHDjaVaCSlidF9su7gb8AtwFXJ8Dnbed2wOEe2GM43PG1NcF0dbe2OtWIpK4K8EyCVl9Ah5+g/XzosBA6FUFef3hmls0EWe5JrBY0D/A8cBI2+OrBZN+OqRKAva4GfBQ2ku6hRP4yfuuvaecCcdtL4PA34ZDtYHU/WDkUVo2Gld01DUok6ewCx82APq7fFg9UeGCOz5pqp2B9uImYPvd24ErgLuCKVNiWnhTab3Nc08Yw4EhsqlKyOBC4zAM7+aF94MEWsL47rOkDK9+w7y4icaoUvNMgbzdrJg4oxpqP17jbCg9c5M5nP2PL8c0m8UcIjwXGY2u7H0GKjH3xpNg+3gbr3G8P7E10J483lXbYWpk7ATt6YKcMyN0KJwId3PNtsL6W362HjFbx1x8kknR+gdwp0Ho6tJ4PrX+D1sug1Rpokwabt8IBwGpgtRsolewOpCqZx0hiM79YAbiJbI+N+tuCDXxamiLb2R/8gN8CcEt3K+gAjxdC97awrjNs6A5r+8C6QbBuT3tsKyLSGJUnwpD/WFdY4MAsS4NFFTALmAP8hC3+4k+RMtkB+NLqAOyODRpLGZ4UPRBGAh9iCTpGErnVOhLZ6dho7D4e6OuHbtgcZgBGwMdf2KT4DBWVpDofeKZD85+hYB7kzYNWS6D1LfDZXrAQa0beQFXTcSFQ6LGWqT2Bue62hNSdatgbm/qU5cpkTqoVgCeFj6HjgRewOcIHABt1WtlGJrZGcl93m+m3i5Z8LNNYSyDP/Z6/HlrvChe2g00dobAzbOwBG7eHjUOhsH0SZrGR1DIV8o6Do9dD3ibI90F60NN+Lyz3wgkVVqOTmnXFEiW1AcZgiy2knPQU3gFexpphn8TWmByNMlEFK3NXpHNCrtY2uFuoNsDBC63m3N9l/fpdFpRcCy/8IzWa/CWO/QrN5kPuUshdAHlLIX8l5B8A866BGdiSpoEabLH7fcNr4FkIQ/1Wa13saq9L3W2hD7b4VLx10Q67mO+IDbianKoF4dG+wIXYfLOPseUMNXUnMjpSNW85kH7zUT/Mw3J0B2rPzbHEALnXwW53w9jmUNISivOhpAA2t4OidrC5A2w+BxbmNV1uWolDxZC2ATJqWX2stB1ctg7a+4K6VgK8sDoDbt9qU2AkegqwaVKDsMRIr6VyYaRrf+DfWG3tblcrPgaNBo6EFe72bZgrvkC/WKh5QPNi6LAK2nmgvR96u/WXARgMh+9rfWYtXAtGcxfIvW5j9poCnQtgSwGUtobSNlDaHko7QGlXKC1QAE8418HAH6BTMWQXQbMNkFsEzTbZCP/cbvDDYvi7u4AucjXXLe73jR5r0cl1u+AaLEf8KrePLvXBVo0yjLo84H9YP/gpqR58VQPe1s3AP4DX3ZWZTtLxIwdLOtIR+I4w6URdkM5uDzeuhj9X90bNYMNmuNwF72xsAEhGyI7QfwU0bwblzaC8BZRnQ2Ur2JoOvu2haJCd5FPaWsgohvRuUOqtYdTuc9D1A+ixyYJn9mbI2QzZxZBVAlnpsHUlXOeCZSk24r40+FYAd2yCfT02VmODzwJo8PzY6STX3P5kPIYnYNM/zwceU5EoAIe6A8vA8gy2+LO6dBJTJtbUle/uA7eWbps+HhK804IDcgt4qdhOFGF1gu+X2QVbuvtfaS6Qe9x7eHeAcwshP9cF7Rw3CC0dKrKhfB+YfwPMrO5/lIH3NNgrI2QfzISKZq6F5mBY/KfwLQkAzIbcG2FocUh/PFZFzAY818OXI20KSFh3Qc+7YXQJZPvAuxWyKiG9Iug9p8Bpw+09ylz5lrr7rYCvL5w1Fy72QIkLoIV+2OC3PtaNLpBeod02qY/HN7HFca4E7lSRKABXVx4PA+dh/cIXq0hSUgbWtN3SBdc8dxLJdVfy66l94MhD2IC0LA/keyDdb/de7GrguXVwj3ttVuix+DXk7mHTVKq1K1z37R+b8UpxtdEzod/TVuvAA0WeP15Qlu4EJ/8APwQ9ttUFzwq3DuxwrMUg0JxbjF0AbMS6Agqx/L01rTSW7VqU1KqUetKAl4BjsRbGW1QkUhMvNj3Jj+UmFYkXeVQlT2npArdIvEp3wdevwCv13XFeczvOg2opEBGplyzgLXcOvUfFIfWVBjzldqDn0YhxEZG6aIbN8/UD41Qc0lAe4H63I72FmvxERGrSHMup4MdGtos0Ogjf6Xao97BBOCIisq2W2HrEPuAyFYdE0t9cEP4MSwIhIiKmPbaSUwVwtopDouFKd3X3LbYggYhIquuGrSxXDpyq4pBoOh+b//gDlp1JRCRV9QTmY/PHj1RxSCycgTW1zAS6qzhEJAUNBpZjyVkOUHFILB2DZQdagS1kLyKSKg7G8qGvA/ZUcUhT2A1bUaUYOFzFISIpYCzW3zsf2F7FIU2pF7ZofQVwiYpDRJKUB7gemw0yBWinIpF40Ar43O2Y9xFmwW8RkQSWRVVe59dRPgSJwx00sIjDm1g6NhGRRNca+CKoguFVkUg8Cm6i+RabnC4ikqh6A79gXWwXqjgkEZyLDVJYAAxQcYhIAtoHG+VcBByk4pBEcgC2WHkRthi1iEgiVSK2YvN8h6g4JBH1w5J1+LC+kwwViYjEsWyqlmH9EuikIpFE1gJ4laqFHNQvLCLxqDe2oIIfeBTIVJFIMvAAl2L9wkuxBB4iIvHiIGA9lt3vLBWHJKORwEqg1AVkEZGmrhz8DVtgZjFKqytJrguWRcYPPIsmtItI08jDchb4gfeBlioSSQXZwJNUzRfupiIRkRjaGcvlXInlLlByDUk5pwEl2HSlk1UcIhJlHmyK0WZgI1rDV1LcEGwxBz82/L+FikREoqAj8IE710wGeqpIRKwf+D53YCwERqhIRCSCxmBrl5cD41BOApE/OAJYo4NERCJ8ce8DFgF7qUhEqtceeI+qNTe3U5GISAPsAEx355JXgAIViUjtAok7SrGBEueqSESkgeePU1QkIvW3EzDDXcG+gK3LKSJSnR7ARHfO+BxNcRRplBzgAawPZxVwoopEREKkAZcBxdgqRn93j4lIBIwAZlGVtaa7ikREgB2pyq73AzBYRSISedlY1pqt2ET6v+kqVyRlZbhzgM4HIk10xTsV2EVFIpJS1CIm0oS82OjoIqAMmzecpWIRSWr52LzeSmz5QM2QEGlCPYEP3ZXwLGBvFYlIUjoaWEbVSmptVCQi8eFYLIuWH3gH5XkVSRb9gQlUpaodoyIRiT9tgIeACmyVpRuBXBWLSMIezw+743kzcAPQTMUiEt+2xwZm+LEmq3PRep8iiSLDHbPBLVo9VCwiieUAqkZKfgfsqSIRiftjNpD9bipaPEEk4a+mLwUKsWxar6ApCyLxpq+r6fqB5a4GrDm9IkmiPfA4Nn2hGLgOyFOxiDSpDliq2TJs8YRbgRYqFpHkNBhL0u4H1gJXo4FaIrHWBrgDG1zlA14HeqlYRFLDAcA3LhCvwdLY5ahYRKKqhTvWCt2x9xGwq4pFJHUD8ffuZLDKnRyyVSwiEdXcHVsb3LH2JbCvikVEPMChwI/u5LAEG7il1JYijZPrjqWV7tj6yl30iohswwucDPziThbzgNOxkdQiUr8a71+xViU/8C3wJxWLiNQlEB8LzHUnjxXYMoitVDQiNWrnjpW17tj52R1LHhWNiNRHBnAa8JM7mWwC7gK6qWhEtjEQeAKbSuTHZhocpsArIpEwAksU4MPmEr8D7KZiER0XfzgudlexiEg0DAIeBbZQNZrzWJS1R1KHFxu0OMUdA0XumOirohGRWOgMjKNqWsVM4HyUXUuSVzvgKmAxVSkjrwZaqmhEpCm0AC7D1in1Y2kun0TNcJI8td0xwGvAVqoGVp0JZKp4RCReTlQHYIs9lLkT1Wws+UBbFY8kmE5u313g9uUtbt8+AA2sEpE41sGdvALTmEp18pIEu4gsp6pr5W9AaxWPiCQSD7Af8BJV0zN+dSe0zioeiRP9gFuwPt3AdLtHUY5mEUkSBdgap9PcSa4SG0F9KdBRxSMx1t3te1+6/dGP5UQ/F8tiJSKSlHYH7gOWuRNfBfAJNopa/cUSzaB7BfBdUNCdC9wM7KDiEZFU4sUSGdxHVfNfRVDNuJ2KSBqpc1BN1+f2scVunxuBxiSIiJCG9Rc/gq1P7MdGU7+PNQsq/aXUVT/gL8AkrKsjsMLXncAwFY+ISM3BOFAzDqwm4wfmY4NjDkVLJUqVZtjo5XHY1LfA/rLG7S+q6YqINDAYD8FWmPmeqmbEzcBH2Ijq/iqmlNMLaxl5h6oR9hVuHxnngq5XxSQiEjkdgDOAl4F1QbWdOcA9wEHYiGtJLu2Bo4HHsObkwHZfjmVeOw6lhJQEo2YZSfTa8c5Y8+Oh2OjqQK1nATAZG3wzGZjlTtiSODXcEcCe7r6/O19VYlPZ3nW13x+0XUUBWKTptQNGupP2Hi44p7vnVrhAHLj9iDVZStPLAYa67RbYdq3cc6VYs3Jgu32OJcoQUQAWiWO5wPCgk/oeVK3WtBmbD/qtq1H9iM0JrVSxRVUGMADYxV0gDcP6+AMLG6wBvnItF1+54FumYhMFYJHE5sUSLowICsg9g57fDEx3AflnbETtDGCtiq5BOrtgO9CV+y7uPhBsfVhq0uCA+4uKTRSARVJDSxcYAjWyXbB5pOlBr1njAvFsV0ue524LsSXqUlkzoDewnbvv4wLuALYdDFfmyvDHoBaH6dhi9iIKwCICQDawfVDtLXDfCxv4RVANbik2P3kJlmFpKfCbu1/satWJrADogqVx7Bp06+GCbqeQ15e7Wu1MbOBb4H6ue05EFIBF6i0La7IO1PYCNb9eWKaunDB/U4IlE1nlatKrgZVAIbDB3Qf/XOQCVWEEP7cXyMeaflu4oFrgav8t3c+tsUFsbd19B/dzdpj3K3YXF/NdS0Dw/WI0uE1EAVgkxtoG1RC7Y32g7YMCWiDAZdbx/cpdsCth26buCv7YdFsQcjw3cxcMeSG19pqUuouEFe5CYQ02z3ZZUI1+aYQvDkQUgEUkZvJdjTO4Jhr4OQdbDi/H1T5bYP3RgYBKSJD1ucAZbIt7rAxrAg8E8I3u8dDadyGW1ET9sSIx9P9eHuDLNefKwAAAACV0RVh0ZGF0ZTpjcmVhdGUAMjAyMi0wOC0wOVQxMzoyMDowNiswMDowMO1vvWoAAAAldEVYdGRhdGU6bW9kaWZ5ADIwMjItMDgtMDlUMTM6MjA6MDYrMDA6MDCcMgXWAAAAAElFTkSuQmCC;" vertex="1" parent="7">
                    <mxGeometry x="390" y="140" width="130" height="130" as="geometry"/>
                </mxCell>
                <mxCell id="12" value="Enter value" style="rounded=1;whiteSpace=wrap;html=1;shadow=0;" vertex="1" parent="7">
                    <mxGeometry x="190" y="220" width="110" height="20" as="geometry"/>
                </mxCell>
                <mxCell id="13" value="&lt;font style=&quot;font-size: 21px;&quot;&gt;r&lt;/font&gt;" style="text;html=1;align=center;verticalAlign=middle;resizable=0;points=[];autosize=1;strokeColor=none;fillColor=none;shadow=0;" vertex="1" parent="7">
                    <mxGeometry x="30" y="210" width="30" height="40" as="geometry"/>
                </mxCell>
                <mxCell id="14" value="&lt;font style=&quot;font-size: 17px;&quot;&gt;Radius&lt;/font&gt;" style="text;html=1;align=center;verticalAlign=middle;resizable=0;points=[];autosize=1;strokeColor=none;fillColor=none;fontSize=21;shadow=0;" vertex="1" parent="7">
                    <mxGeometry x="60" y="210" width="80" height="40" as="geometry"/>
                </mxCell>
                <mxCell id="15" value="&lt;font style=&quot;font-size: 21px;&quot;&gt;Sphere&lt;/font&gt;" style="text;html=1;align=center;verticalAlign=middle;resizable=0;points=[];autosize=1;strokeColor=none;fillColor=none;fontSize=17;" vertex="1" parent="7">
                    <mxGeometry x="10" y="40" width="90" height="40" as="geometry"/>
                </mxCell>
                <mxCell id="16" value="&lt;font style=&quot;font-size: 18px;&quot;&gt;Solve for &lt;u&gt;volume&lt;/u&gt;&lt;/font&gt;" style="text;html=1;align=center;verticalAlign=middle;resizable=0;points=[];autosize=1;strokeColor=none;fillColor=none;fontSize=21;shadow=0;" vertex="1" parent="7">
                    <mxGeometry x="10" y="70" width="160" height="40" as="geometry"/>
                </mxCell>
                <mxCell id="19" value="V = &lt;u&gt;4&lt;/u&gt;&amp;nbsp;&lt;br&gt;&amp;nbsp; &amp;nbsp; &amp;nbsp; 3" style="text;html=1;align=center;verticalAlign=middle;resizable=0;points=[];autosize=1;strokeColor=none;fillColor=none;fontSize=18;shadow=0;strokeWidth=17;" vertex="1" parent="7">
                    <mxGeometry x="20" y="120" width="70" height="60" as="geometry"/>
                </mxCell>
                <mxCell id="20" value="&lt;font style=&quot;font-size: 17px;&quot; color=&quot;#ffffff&quot;&gt;&lt;span style=&quot;font-family: sans-serif; text-align: start;&quot;&gt;&amp;nbsp;&lt;/span&gt;&lt;b style=&quot;font-family: sans-serif; text-align: start;&quot;&gt;&lt;span style=&quot;font-family: &amp;quot;Nimbus Roman No9 L&amp;quot;, &amp;quot;Times New Roman&amp;quot;, Times, serif; line-height: 1; font-variant-numeric: lining-nums tabular-nums; font-kerning: none; font-style: italic;&quot; class=&quot;texhtml mvar&quot;&gt;π&lt;/span&gt;&lt;/b&gt;&lt;/font&gt;" style="text;html=1;align=center;verticalAlign=middle;resizable=0;points=[];autosize=1;strokeColor=none;fillColor=none;fontSize=18;fontColor=#f8f2f2;shadow=0;labelBackgroundColor=#000000;strokeWidth=17;" vertex="1" parent="7">
                    <mxGeometry x="70" y="130" width="40" height="40" as="geometry"/>
                </mxCell>
                <mxCell id="21" value="&lt;font style=&quot;font-size: 17px;&quot;&gt;&lt;div style=&quot;display: inline-block; position: relative; transition: color 0.05s ease-in-out 0s; margin: -4px; padding: 4px; font-style: italic; color: rgb(189, 193, 198); font-family: STIXGeneral, Georgia; text-align: start; cursor: pointer;&quot; role=&quot;link&quot; data-var=&quot;r&quot; class=&quot;lr-fy-el lr-fy-eq-elem&quot;&gt;r&lt;/div&gt;&lt;div style=&quot;display: inline-block; position: relative; transition: color 0.05s ease-in-out 0s; font-family: STIXGeneral, Times, &amp;quot;Times New Roman&amp;quot;, serif; margin-left: 0.15em; vertical-align: top; color: rgb(189, 193, 198); text-align: start;&quot; class=&quot;lr-fy-ecv lr-fy-eq-elem&quot;&gt;3&lt;/div&gt;&lt;/font&gt;" style="text;html=1;align=center;verticalAlign=middle;resizable=0;points=[];autosize=1;strokeColor=none;fillColor=none;fontSize=18;fontColor=#FFFFFF;" vertex="1" parent="7">
                    <mxGeometry x="100" y="130" width="40" height="40" as="geometry"/>
                </mxCell>
            </root>
        </mxGraphModel>
    </diagram>
</mxfile>